<mxfile host="Electron" agent="Mozilla/5.0 (Windows NT 10.0; Win64; x64) AppleWebKit/537.36 (KHTML, like Gecko) draw.io/26.0.9 Chrome/128.0.6613.186 Electron/32.2.5 Safari/537.36" version="26.0.9">
  <diagram name="Page-1" id="2YBvvXClWsGukQMizWep">
    <mxGraphModel dx="2580" dy="1242" grid="1" gridSize="10" guides="1" tooltips="1" connect="1" arrows="1" fold="1" page="1" pageScale="1" pageWidth="850" pageHeight="1100" math="0" shadow="0">
      <root>
        <mxCell id="0" />
        <mxCell id="1" parent="0" />
        <mxCell id="-OGlP8KNZQWg6UsRNXII-14" value="video-functions.js" style="shape=umlLifeline;perimeter=lifelinePerimeter;whiteSpace=wrap;html=1;container=0;dropTarget=0;collapsible=0;recursiveResize=0;outlineConnect=0;portConstraint=eastwest;newEdgeStyle={&quot;edgeStyle&quot;:&quot;elbowEdgeStyle&quot;,&quot;elbow&quot;:&quot;vertical&quot;,&quot;curved&quot;:0,&quot;rounded&quot;:0};labelBackgroundColor=none;fillColor=#FAE5C7;strokeColor=#0F8B8D;fontColor=#143642;" vertex="1" parent="1">
          <mxGeometry x="650" y="40" width="110" height="780" as="geometry" />
        </mxCell>
        <mxCell id="-OGlP8KNZQWg6UsRNXII-15" value="" style="html=1;points=[];perimeter=orthogonalPerimeter;outlineConnect=0;targetShapes=umlLifeline;portConstraint=eastwest;newEdgeStyle={&quot;edgeStyle&quot;:&quot;elbowEdgeStyle&quot;,&quot;elbow&quot;:&quot;vertical&quot;,&quot;curved&quot;:0,&quot;rounded&quot;:0};labelBackgroundColor=none;fillColor=#FAE5C7;strokeColor=#0F8B8D;fontColor=#143642;" vertex="1" parent="-OGlP8KNZQWg6UsRNXII-14">
          <mxGeometry x="50" y="330" width="10" height="70" as="geometry" />
        </mxCell>
        <mxCell id="-OGlP8KNZQWg6UsRNXII-33" value="" style="html=1;points=[];perimeter=orthogonalPerimeter;outlineConnect=0;targetShapes=umlLifeline;portConstraint=eastwest;newEdgeStyle={&quot;edgeStyle&quot;:&quot;elbowEdgeStyle&quot;,&quot;elbow&quot;:&quot;vertical&quot;,&quot;curved&quot;:0,&quot;rounded&quot;:0};labelBackgroundColor=none;fillColor=#FAE5C7;strokeColor=#0F8B8D;fontColor=#143642;" vertex="1" parent="-OGlP8KNZQWg6UsRNXII-14">
          <mxGeometry x="50" y="690" width="10" height="70" as="geometry" />
        </mxCell>
        <mxCell id="-OGlP8KNZQWg6UsRNXII-24" value="table.js" style="shape=umlLifeline;perimeter=lifelinePerimeter;whiteSpace=wrap;html=1;container=0;dropTarget=0;collapsible=0;recursiveResize=0;outlineConnect=0;portConstraint=eastwest;newEdgeStyle={&quot;edgeStyle&quot;:&quot;elbowEdgeStyle&quot;,&quot;elbow&quot;:&quot;vertical&quot;,&quot;curved&quot;:0,&quot;rounded&quot;:0};labelBackgroundColor=none;fillColor=#FAE5C7;strokeColor=#0F8B8D;fontColor=#143642;" vertex="1" parent="1">
          <mxGeometry x="780" y="40" width="90" height="650" as="geometry" />
        </mxCell>
        <mxCell id="-OGlP8KNZQWg6UsRNXII-25" value="" style="html=1;points=[];perimeter=orthogonalPerimeter;outlineConnect=0;targetShapes=umlLifeline;portConstraint=eastwest;newEdgeStyle={&quot;edgeStyle&quot;:&quot;elbowEdgeStyle&quot;,&quot;elbow&quot;:&quot;vertical&quot;,&quot;curved&quot;:0,&quot;rounded&quot;:0};labelBackgroundColor=none;fillColor=#FAE5C7;strokeColor=#0F8B8D;fontColor=#143642;" vertex="1" parent="-OGlP8KNZQWg6UsRNXII-24">
          <mxGeometry x="40" y="210" width="10" height="60" as="geometry" />
        </mxCell>
        <mxCell id="aM9ryv3xv72pqoxQDRHE-1" value="Utilisateur" style="shape=umlLifeline;perimeter=lifelinePerimeter;whiteSpace=wrap;html=1;container=0;dropTarget=0;collapsible=0;recursiveResize=0;outlineConnect=0;portConstraint=eastwest;newEdgeStyle={&quot;edgeStyle&quot;:&quot;elbowEdgeStyle&quot;,&quot;elbow&quot;:&quot;vertical&quot;,&quot;curved&quot;:0,&quot;rounded&quot;:0};labelBackgroundColor=none;fillColor=#FAE5C7;strokeColor=#0F8B8D;fontColor=#143642;" parent="1" vertex="1">
          <mxGeometry x="40" y="40" width="100" height="140" as="geometry" />
        </mxCell>
        <mxCell id="aM9ryv3xv72pqoxQDRHE-2" value="" style="html=1;points=[];perimeter=orthogonalPerimeter;outlineConnect=0;targetShapes=umlLifeline;portConstraint=eastwest;newEdgeStyle={&quot;edgeStyle&quot;:&quot;elbowEdgeStyle&quot;,&quot;elbow&quot;:&quot;vertical&quot;,&quot;curved&quot;:0,&quot;rounded&quot;:0};labelBackgroundColor=none;fillColor=#FAE5C7;strokeColor=#0F8B8D;fontColor=#143642;" parent="aM9ryv3xv72pqoxQDRHE-1" vertex="1">
          <mxGeometry x="45" y="70" width="10" height="50" as="geometry" />
        </mxCell>
        <mxCell id="aM9ryv3xv72pqoxQDRHE-5" value="Navigateur" style="shape=umlLifeline;perimeter=lifelinePerimeter;whiteSpace=wrap;html=1;container=0;dropTarget=0;collapsible=0;recursiveResize=0;outlineConnect=0;portConstraint=eastwest;newEdgeStyle={&quot;edgeStyle&quot;:&quot;elbowEdgeStyle&quot;,&quot;elbow&quot;:&quot;vertical&quot;,&quot;curved&quot;:0,&quot;rounded&quot;:0};labelBackgroundColor=none;fillColor=#FAE5C7;strokeColor=#0F8B8D;fontColor=#143642;" parent="1" vertex="1">
          <mxGeometry x="170" y="40" width="100" height="140" as="geometry" />
        </mxCell>
        <mxCell id="aM9ryv3xv72pqoxQDRHE-6" value="" style="html=1;points=[];perimeter=orthogonalPerimeter;outlineConnect=0;targetShapes=umlLifeline;portConstraint=eastwest;newEdgeStyle={&quot;edgeStyle&quot;:&quot;elbowEdgeStyle&quot;,&quot;elbow&quot;:&quot;vertical&quot;,&quot;curved&quot;:0,&quot;rounded&quot;:0};labelBackgroundColor=none;fillColor=#FAE5C7;strokeColor=#0F8B8D;fontColor=#143642;" parent="aM9ryv3xv72pqoxQDRHE-5" vertex="1">
          <mxGeometry x="45" y="80" width="10" height="40" as="geometry" />
        </mxCell>
        <mxCell id="aM9ryv3xv72pqoxQDRHE-7" value="Clic bouton GO" style="html=1;verticalAlign=bottom;endArrow=block;edgeStyle=elbowEdgeStyle;elbow=horizontal;curved=0;rounded=0;labelBackgroundColor=none;strokeColor=#A8201A;fontColor=default;" parent="1" edge="1">
          <mxGeometry relative="1" as="geometry">
            <mxPoint x="100" y="130" as="sourcePoint" />
            <Array as="points" />
            <mxPoint x="215" y="130" as="targetPoint" />
          </mxGeometry>
        </mxCell>
        <mxCell id="-OGlP8KNZQWg6UsRNXII-3" value="billardScenarioSimple.js" style="shape=umlLifeline;perimeter=lifelinePerimeter;whiteSpace=wrap;html=1;container=0;dropTarget=0;collapsible=0;recursiveResize=0;outlineConnect=0;portConstraint=eastwest;newEdgeStyle={&quot;edgeStyle&quot;:&quot;elbowEdgeStyle&quot;,&quot;elbow&quot;:&quot;vertical&quot;,&quot;curved&quot;:0,&quot;rounded&quot;:0};labelBackgroundColor=none;fillColor=#FAE5C7;strokeColor=#0F8B8D;fontColor=#143642;" vertex="1" parent="1">
          <mxGeometry x="330" y="40" width="130" height="1120" as="geometry" />
        </mxCell>
        <mxCell id="-OGlP8KNZQWg6UsRNXII-4" value="" style="html=1;points=[];perimeter=orthogonalPerimeter;outlineConnect=0;targetShapes=umlLifeline;portConstraint=eastwest;newEdgeStyle={&quot;edgeStyle&quot;:&quot;elbowEdgeStyle&quot;,&quot;elbow&quot;:&quot;vertical&quot;,&quot;curved&quot;:0,&quot;rounded&quot;:0};labelBackgroundColor=none;fillColor=#FAE5C7;strokeColor=#0F8B8D;fontColor=#143642;" vertex="1" parent="-OGlP8KNZQWg6UsRNXII-3">
          <mxGeometry x="60" y="80" width="10" height="1020" as="geometry" />
        </mxCell>
        <mxCell id="-OGlP8KNZQWg6UsRNXII-7" value="startScenario(socket, robotIp)" style="html=1;verticalAlign=bottom;endArrow=block;edgeStyle=elbowEdgeStyle;elbow=horizontal;curved=0;rounded=0;labelBackgroundColor=none;strokeColor=#A8201A;fontColor=default;" edge="1" parent="1" source="aM9ryv3xv72pqoxQDRHE-6" target="-OGlP8KNZQWg6UsRNXII-4">
          <mxGeometry relative="1" as="geometry">
            <mxPoint x="160" y="140" as="sourcePoint" />
            <Array as="points">
              <mxPoint x="245" y="140" />
            </Array>
            <mxPoint x="330" y="140" as="targetPoint" />
          </mxGeometry>
        </mxCell>
        <mxCell id="-OGlP8KNZQWg6UsRNXII-8" value="getBalls()" style="html=1;verticalAlign=bottom;endArrow=block;edgeStyle=elbowEdgeStyle;elbow=horizontal;curved=0;rounded=0;labelBackgroundColor=none;strokeColor=#A8201A;fontColor=default;" edge="1" parent="1" target="-OGlP8KNZQWg6UsRNXII-10">
          <mxGeometry relative="1" as="geometry">
            <mxPoint x="400" y="160" as="sourcePoint" />
            <Array as="points">
              <mxPoint x="410" y="160" />
            </Array>
            <mxPoint x="555" y="160" as="targetPoint" />
          </mxGeometry>
        </mxCell>
        <mxCell id="-OGlP8KNZQWg6UsRNXII-9" value="elements-manager.js" style="shape=umlLifeline;perimeter=lifelinePerimeter;whiteSpace=wrap;html=1;container=0;dropTarget=0;collapsible=0;recursiveResize=0;outlineConnect=0;portConstraint=eastwest;newEdgeStyle={&quot;edgeStyle&quot;:&quot;elbowEdgeStyle&quot;,&quot;elbow&quot;:&quot;vertical&quot;,&quot;curved&quot;:0,&quot;rounded&quot;:0};labelBackgroundColor=none;fillColor=#FAE5C7;strokeColor=#0F8B8D;fontColor=#143642;" vertex="1" parent="1">
          <mxGeometry x="500" y="40" width="130" height="810" as="geometry" />
        </mxCell>
        <mxCell id="-OGlP8KNZQWg6UsRNXII-10" value="" style="html=1;points=[];perimeter=orthogonalPerimeter;outlineConnect=0;targetShapes=umlLifeline;portConstraint=eastwest;newEdgeStyle={&quot;edgeStyle&quot;:&quot;elbowEdgeStyle&quot;,&quot;elbow&quot;:&quot;vertical&quot;,&quot;curved&quot;:0,&quot;rounded&quot;:0};labelBackgroundColor=none;fillColor=#FAE5C7;strokeColor=#0F8B8D;fontColor=#143642;" vertex="1" parent="-OGlP8KNZQWg6UsRNXII-9">
          <mxGeometry x="60" y="80" width="10" height="340" as="geometry" />
        </mxCell>
        <mxCell id="-OGlP8KNZQWg6UsRNXII-31" value="getRobot(index)" style="html=1;verticalAlign=bottom;endArrow=block;edgeStyle=elbowEdgeStyle;elbow=horizontal;curved=0;rounded=0;labelBackgroundColor=none;strokeColor=#A8201A;fontColor=default;" edge="1" parent="-OGlP8KNZQWg6UsRNXII-9">
          <mxGeometry relative="1" as="geometry">
            <mxPoint x="-101.55999999999995" y="480" as="sourcePoint" />
            <Array as="points">
              <mxPoint x="-91.55999999999995" y="480" />
            </Array>
            <mxPoint x="58.440000000000055" y="480" as="targetPoint" />
          </mxGeometry>
        </mxCell>
        <mxCell id="-OGlP8KNZQWg6UsRNXII-34" value="getRealRobot(index)" style="html=1;verticalAlign=bottom;endArrow=block;edgeStyle=elbowEdgeStyle;elbow=horizontal;curved=0;rounded=0;labelBackgroundColor=none;strokeColor=#A8201A;fontColor=default;" edge="1" parent="-OGlP8KNZQWg6UsRNXII-9">
          <mxGeometry relative="1" as="geometry">
            <mxPoint x="68.44000000000005" y="710" as="sourcePoint" />
            <Array as="points">
              <mxPoint x="88.44000000000005" y="710" />
            </Array>
            <mxPoint x="200" y="710" as="targetPoint" />
          </mxGeometry>
        </mxCell>
        <mxCell id="-OGlP8KNZQWg6UsRNXII-35" value="[currentView = SIMULATEUR]" style="text;html=1;align=center;verticalAlign=middle;whiteSpace=wrap;rounded=0;labelBackgroundColor=none;fontColor=#143642;" vertex="1" parent="-OGlP8KNZQWg6UsRNXII-9">
          <mxGeometry x="58.440000000000055" y="520" width="190" height="30" as="geometry" />
        </mxCell>
        <mxCell id="-OGlP8KNZQWg6UsRNXII-36" value="" style="endArrow=none;dashed=1;html=1;dashPattern=1 3;strokeWidth=2;rounded=0;strokeColor=#A8201A;fontColor=#143642;fillColor=#FAE5C7;entryX=1.009;entryY=0.567;entryDx=0;entryDy=0;entryPerimeter=0;exitX=-0.001;exitY=0.538;exitDx=0;exitDy=0;exitPerimeter=0;" edge="1" parent="-OGlP8KNZQWg6UsRNXII-9" target="-OGlP8KNZQWg6UsRNXII-32">
          <mxGeometry width="50" height="50" relative="1" as="geometry">
            <mxPoint x="38.44000000000028" y="654.8599999999999" as="sourcePoint" />
            <mxPoint x="430" y="654.5500000000002" as="targetPoint" />
          </mxGeometry>
        </mxCell>
        <mxCell id="-OGlP8KNZQWg6UsRNXII-37" value="[else]" style="text;html=1;align=center;verticalAlign=middle;whiteSpace=wrap;rounded=0;labelBackgroundColor=none;fontColor=#143642;" vertex="1" parent="-OGlP8KNZQWg6UsRNXII-9">
          <mxGeometry x="68.44000000000005" y="660" width="40" height="30" as="geometry" />
        </mxCell>
        <mxCell id="-OGlP8KNZQWg6UsRNXII-39" value="getRobotsDetected()[index]" style="html=1;verticalAlign=bottom;endArrow=block;edgeStyle=elbowEdgeStyle;elbow=horizontal;curved=0;rounded=0;labelBackgroundColor=none;strokeColor=#A8201A;fontColor=default;" edge="1" parent="-OGlP8KNZQWg6UsRNXII-9" target="-OGlP8KNZQWg6UsRNXII-38">
          <mxGeometry relative="1" as="geometry">
            <mxPoint x="68.44000000000005" y="580" as="sourcePoint" />
            <Array as="points">
              <mxPoint x="268.44000000000005" y="580" />
            </Array>
            <mxPoint x="398.44000000000005" y="580" as="targetPoint" />
          </mxGeometry>
        </mxCell>
        <mxCell id="-OGlP8KNZQWg6UsRNXII-40" value="robot" style="html=1;verticalAlign=bottom;endArrow=open;dashed=1;endSize=8;edgeStyle=elbowEdgeStyle;elbow=vertical;curved=0;rounded=0;labelBackgroundColor=none;strokeColor=#A8201A;fontColor=default;exitX=-0.326;exitY=0.804;exitDx=0;exitDy=0;exitPerimeter=0;" edge="1" parent="-OGlP8KNZQWg6UsRNXII-9" source="-OGlP8KNZQWg6UsRNXII-38">
          <mxGeometry relative="1" as="geometry">
            <mxPoint x="68.44000000000005" y="620" as="targetPoint" />
            <Array as="points">
              <mxPoint x="343.44000000000005" y="620" />
            </Array>
            <mxPoint x="398.44000000000005" y="620" as="sourcePoint" />
          </mxGeometry>
        </mxCell>
        <mxCell id="-OGlP8KNZQWg6UsRNXII-41" value="robot" style="html=1;verticalAlign=bottom;endArrow=open;dashed=1;endSize=8;edgeStyle=elbowEdgeStyle;elbow=vertical;curved=0;rounded=0;labelBackgroundColor=none;strokeColor=#A8201A;fontColor=default;" edge="1" parent="-OGlP8KNZQWg6UsRNXII-9" source="-OGlP8KNZQWg6UsRNXII-33">
          <mxGeometry relative="1" as="geometry">
            <mxPoint x="68.44000000000005" y="740" as="targetPoint" />
            <Array as="points">
              <mxPoint x="143.44000000000005" y="740" />
            </Array>
            <mxPoint x="238.44000000000005" y="740" as="sourcePoint" />
          </mxGeometry>
        </mxCell>
        <mxCell id="-OGlP8KNZQWg6UsRNXII-42" value="robot" style="html=1;verticalAlign=bottom;endArrow=open;dashed=1;endSize=8;edgeStyle=elbowEdgeStyle;elbow=vertical;curved=0;rounded=0;labelBackgroundColor=none;strokeColor=#A8201A;fontColor=default;" edge="1" parent="-OGlP8KNZQWg6UsRNXII-9">
          <mxGeometry relative="1" as="geometry">
            <mxPoint x="-101.55999999999995" y="770" as="targetPoint" />
            <Array as="points">
              <mxPoint x="-26.559999999999945" y="770" />
            </Array>
            <mxPoint x="58.440000000000055" y="770" as="sourcePoint" />
          </mxGeometry>
        </mxCell>
        <mxCell id="-OGlP8KNZQWg6UsRNXII-43" value="" style="html=1;points=[];perimeter=orthogonalPerimeter;outlineConnect=0;targetShapes=umlLifeline;portConstraint=eastwest;newEdgeStyle={&quot;edgeStyle&quot;:&quot;elbowEdgeStyle&quot;,&quot;elbow&quot;:&quot;vertical&quot;,&quot;curved&quot;:0,&quot;rounded&quot;:0};labelBackgroundColor=none;fillColor=#FAE5C7;strokeColor=#0F8B8D;fontColor=#143642;" vertex="1" parent="-OGlP8KNZQWg6UsRNXII-9">
          <mxGeometry x="60" y="470" width="10" height="320" as="geometry" />
        </mxCell>
        <mxCell id="-OGlP8KNZQWg6UsRNXII-32" value="alt" style="shape=umlFrame;whiteSpace=wrap;html=1;pointerEvents=0;labelBackgroundColor=none;fillColor=#FAE5C7;strokeColor=#0F8B8D;fontColor=#143642;" vertex="1" parent="-OGlP8KNZQWg6UsRNXII-9">
          <mxGeometry x="38.44" y="490" width="301.56" height="290" as="geometry" />
        </mxCell>
        <mxCell id="-OGlP8KNZQWg6UsRNXII-13" value="alt" style="shape=umlFrame;whiteSpace=wrap;html=1;pointerEvents=0;labelBackgroundColor=none;fillColor=#FAE5C7;strokeColor=#0F8B8D;fontColor=#143642;" vertex="1" parent="1">
          <mxGeometry x="540" y="170" width="300" height="290" as="geometry" />
        </mxCell>
        <mxCell id="-OGlP8KNZQWg6UsRNXII-18" value="getRealBalls()" style="html=1;verticalAlign=bottom;endArrow=block;edgeStyle=elbowEdgeStyle;elbow=horizontal;curved=0;rounded=0;labelBackgroundColor=none;strokeColor=#A8201A;fontColor=default;" edge="1" parent="1">
          <mxGeometry relative="1" as="geometry">
            <mxPoint x="570" y="390" as="sourcePoint" />
            <Array as="points">
              <mxPoint x="590" y="390" />
            </Array>
            <mxPoint x="700" y="390" as="targetPoint" />
          </mxGeometry>
        </mxCell>
        <mxCell id="-OGlP8KNZQWg6UsRNXII-21" value="[currentView = SIMULATEUR]" style="text;html=1;align=center;verticalAlign=middle;whiteSpace=wrap;rounded=0;labelBackgroundColor=none;fontColor=#143642;" vertex="1" parent="1">
          <mxGeometry x="560" y="200" width="190" height="30" as="geometry" />
        </mxCell>
        <mxCell id="-OGlP8KNZQWg6UsRNXII-22" value="" style="endArrow=none;dashed=1;html=1;dashPattern=1 3;strokeWidth=2;rounded=0;strokeColor=#A8201A;fontColor=#143642;fillColor=#FAE5C7;entryX=1.004;entryY=0.563;entryDx=0;entryDy=0;entryPerimeter=0;exitX=-0.001;exitY=0.538;exitDx=0;exitDy=0;exitPerimeter=0;" edge="1" parent="1" target="-OGlP8KNZQWg6UsRNXII-13">
          <mxGeometry width="50" height="50" relative="1" as="geometry">
            <mxPoint x="540.0000000000002" y="334.8599999999999" as="sourcePoint" />
            <mxPoint x="931.56" y="334.5500000000001" as="targetPoint" />
          </mxGeometry>
        </mxCell>
        <mxCell id="-OGlP8KNZQWg6UsRNXII-23" value="[else]" style="text;html=1;align=center;verticalAlign=middle;whiteSpace=wrap;rounded=0;labelBackgroundColor=none;fontColor=#143642;" vertex="1" parent="1">
          <mxGeometry x="570" y="340" width="40" height="30" as="geometry" />
        </mxCell>
        <mxCell id="-OGlP8KNZQWg6UsRNXII-26" value="getBallsDetected()" style="html=1;verticalAlign=bottom;endArrow=block;edgeStyle=elbowEdgeStyle;elbow=horizontal;curved=0;rounded=0;labelBackgroundColor=none;strokeColor=#A8201A;fontColor=default;" edge="1" parent="1">
          <mxGeometry relative="1" as="geometry">
            <mxPoint x="570" y="260" as="sourcePoint" />
            <Array as="points">
              <mxPoint x="770" y="260" />
            </Array>
            <mxPoint x="820" y="260" as="targetPoint" />
          </mxGeometry>
        </mxCell>
        <mxCell id="-OGlP8KNZQWg6UsRNXII-28" value="ballsDetected" style="html=1;verticalAlign=bottom;endArrow=open;dashed=1;endSize=8;edgeStyle=elbowEdgeStyle;elbow=horizontal;curved=0;rounded=0;labelBackgroundColor=none;strokeColor=#A8201A;fontColor=default;" edge="1" parent="1">
          <mxGeometry relative="1" as="geometry">
            <mxPoint x="570" y="300" as="targetPoint" />
            <Array as="points" />
            <mxPoint x="810" y="300" as="sourcePoint" />
          </mxGeometry>
        </mxCell>
        <mxCell id="-OGlP8KNZQWg6UsRNXII-29" value="ballsPositions" style="html=1;verticalAlign=bottom;endArrow=open;dashed=1;endSize=8;edgeStyle=elbowEdgeStyle;elbow=vertical;curved=0;rounded=0;labelBackgroundColor=none;strokeColor=#A8201A;fontColor=default;" edge="1" parent="1" source="-OGlP8KNZQWg6UsRNXII-15">
          <mxGeometry relative="1" as="geometry">
            <mxPoint x="570" y="420" as="targetPoint" />
            <Array as="points">
              <mxPoint x="645" y="420" />
            </Array>
            <mxPoint x="740" y="420" as="sourcePoint" />
          </mxGeometry>
        </mxCell>
        <mxCell id="-OGlP8KNZQWg6UsRNXII-30" value="balls" style="html=1;verticalAlign=bottom;endArrow=open;dashed=1;endSize=8;edgeStyle=elbowEdgeStyle;elbow=vertical;curved=0;rounded=0;labelBackgroundColor=none;strokeColor=#A8201A;fontColor=default;" edge="1" parent="1">
          <mxGeometry relative="1" as="geometry">
            <mxPoint x="400" y="450" as="targetPoint" />
            <Array as="points">
              <mxPoint x="475" y="450" />
            </Array>
            <mxPoint x="560" y="450" as="sourcePoint" />
          </mxGeometry>
        </mxCell>
        <mxCell id="-OGlP8KNZQWg6UsRNXII-44" value="loop" style="shape=umlFrame;whiteSpace=wrap;html=1;pointerEvents=0;labelBackgroundColor=none;fillColor=#FAE5C7;strokeColor=#0F8B8D;fontColor=#143642;" vertex="1" parent="1">
          <mxGeometry x="370" y="860" width="860" height="290" as="geometry" />
        </mxCell>
        <mxCell id="-OGlP8KNZQWg6UsRNXII-60" value="[tant qu&#39;il reste des boules]" style="text;html=1;align=center;verticalAlign=middle;whiteSpace=wrap;rounded=0;labelBackgroundColor=none;fontColor=#143642;" vertex="1" parent="1">
          <mxGeometry x="380" y="890" width="190" height="30" as="geometry" />
        </mxCell>
        <mxCell id="-OGlP8KNZQWg6UsRNXII-61" value="scenarios-functions.js" style="shape=umlLifeline;perimeter=lifelinePerimeter;whiteSpace=wrap;html=1;container=0;dropTarget=0;collapsible=0;recursiveResize=0;outlineConnect=0;portConstraint=eastwest;newEdgeStyle={&quot;edgeStyle&quot;:&quot;elbowEdgeStyle&quot;,&quot;elbow&quot;:&quot;vertical&quot;,&quot;curved&quot;:0,&quot;rounded&quot;:0};labelBackgroundColor=none;fillColor=#FAE5C7;strokeColor=#0F8B8D;fontColor=#143642;" vertex="1" parent="1">
          <mxGeometry x="890" y="40" width="130" height="1070" as="geometry" />
        </mxCell>
        <mxCell id="-OGlP8KNZQWg6UsRNXII-62" value="" style="html=1;points=[];perimeter=orthogonalPerimeter;outlineConnect=0;targetShapes=umlLifeline;portConstraint=eastwest;newEdgeStyle={&quot;edgeStyle&quot;:&quot;elbowEdgeStyle&quot;,&quot;elbow&quot;:&quot;vertical&quot;,&quot;curved&quot;:0,&quot;rounded&quot;:0};labelBackgroundColor=none;fillColor=#FAE5C7;strokeColor=#0F8B8D;fontColor=#143642;" vertex="1" parent="-OGlP8KNZQWg6UsRNXII-61">
          <mxGeometry x="60" y="890" width="10" height="170" as="geometry" />
        </mxCell>
        <mxCell id="-OGlP8KNZQWg6UsRNXII-63" value="getNearestBall(balls, robot.position)" style="html=1;verticalAlign=bottom;endArrow=block;edgeStyle=elbowEdgeStyle;elbow=horizontal;curved=0;rounded=0;labelBackgroundColor=none;strokeColor=#A8201A;fontColor=default;" edge="1" parent="1" target="-OGlP8KNZQWg6UsRNXII-62">
          <mxGeometry relative="1" as="geometry">
            <mxPoint x="400" y="950" as="sourcePoint" />
            <Array as="points">
              <mxPoint x="430" y="950" />
            </Array>
            <mxPoint x="1070" y="950" as="targetPoint" />
          </mxGeometry>
        </mxCell>
        <mxCell id="-OGlP8KNZQWg6UsRNXII-64" value="brain.js" style="shape=umlLifeline;perimeter=lifelinePerimeter;whiteSpace=wrap;html=1;container=0;dropTarget=0;collapsible=0;recursiveResize=0;outlineConnect=0;portConstraint=eastwest;newEdgeStyle={&quot;edgeStyle&quot;:&quot;elbowEdgeStyle&quot;,&quot;elbow&quot;:&quot;vertical&quot;,&quot;curved&quot;:0,&quot;rounded&quot;:0};labelBackgroundColor=none;fillColor=#FAE5C7;strokeColor=#0F8B8D;fontColor=#143642;" vertex="1" parent="1">
          <mxGeometry x="1140" y="40" width="130" height="1120" as="geometry" />
        </mxCell>
        <mxCell id="-OGlP8KNZQWg6UsRNXII-65" value="" style="html=1;points=[];perimeter=orthogonalPerimeter;outlineConnect=0;targetShapes=umlLifeline;portConstraint=eastwest;newEdgeStyle={&quot;edgeStyle&quot;:&quot;elbowEdgeStyle&quot;,&quot;elbow&quot;:&quot;vertical&quot;,&quot;curved&quot;:0,&quot;rounded&quot;:0};labelBackgroundColor=none;fillColor=#FAE5C7;strokeColor=#0F8B8D;fontColor=#143642;" vertex="1" parent="-OGlP8KNZQWg6UsRNXII-64">
          <mxGeometry x="60" y="930" width="10" height="170" as="geometry" />
        </mxCell>
        <mxCell id="-OGlP8KNZQWg6UsRNXII-67" value="distanceBetweenPoints(robotPosition, ball)" style="html=1;verticalAlign=bottom;endArrow=block;edgeStyle=elbowEdgeStyle;elbow=horizontal;curved=0;rounded=0;labelBackgroundColor=none;strokeColor=#A8201A;fontColor=default;" edge="1" parent="1">
          <mxGeometry relative="1" as="geometry">
            <mxPoint x="960" y="1039.69" as="sourcePoint" />
            <Array as="points">
              <mxPoint x="1090" y="1059.69" />
            </Array>
            <mxPoint x="1200" y="1039.69" as="targetPoint" />
          </mxGeometry>
        </mxCell>
        <mxCell id="-OGlP8KNZQWg6UsRNXII-69" value="ballToPush" style="html=1;verticalAlign=bottom;endArrow=open;dashed=1;endSize=8;edgeStyle=elbowEdgeStyle;elbow=vertical;curved=0;rounded=0;labelBackgroundColor=none;strokeColor=#A8201A;fontColor=default;" edge="1" parent="1">
          <mxGeometry relative="1" as="geometry">
            <mxPoint x="399.9999999999998" y="1090.125" as="targetPoint" />
            <Array as="points" />
            <mxPoint x="950" y="1090" as="sourcePoint" />
          </mxGeometry>
        </mxCell>
        <mxCell id="-OGlP8KNZQWg6UsRNXII-38" value="" style="html=1;points=[];perimeter=orthogonalPerimeter;outlineConnect=0;targetShapes=umlLifeline;portConstraint=eastwest;newEdgeStyle={&quot;edgeStyle&quot;:&quot;elbowEdgeStyle&quot;,&quot;elbow&quot;:&quot;vertical&quot;,&quot;curved&quot;:0,&quot;rounded&quot;:0};labelBackgroundColor=none;fillColor=#FAE5C7;strokeColor=#0F8B8D;fontColor=#143642;" vertex="1" parent="1">
          <mxGeometry x="820" y="610" width="10" height="60" as="geometry" />
        </mxCell>
        <mxCell id="-OGlP8KNZQWg6UsRNXII-71" value="moveRobotTo(socker, robotIp, ballToPush.x, ballToPush.y)" style="html=1;verticalAlign=bottom;endArrow=block;edgeStyle=elbowEdgeStyle;elbow=horizontal;curved=0;rounded=0;labelBackgroundColor=none;strokeColor=#A8201A;fontColor=default;" edge="1" parent="1">
          <mxGeometry relative="1" as="geometry">
            <mxPoint x="400" y="1130" as="sourcePoint" />
            <Array as="points">
              <mxPoint x="430" y="1130" />
            </Array>
            <mxPoint x="1200" y="1130" as="targetPoint" />
          </mxGeometry>
        </mxCell>
        <mxCell id="-OGlP8KNZQWg6UsRNXII-72" value="min(distanceBalls)" style="html=1;verticalAlign=bottom;endArrow=open;dashed=1;endSize=8;edgeStyle=elbowEdgeStyle;elbow=vertical;curved=0;rounded=0;labelBackgroundColor=none;strokeColor=#A8201A;fontColor=default;" edge="1" parent="1">
          <mxGeometry relative="1" as="geometry">
            <mxPoint x="960" y="1070" as="targetPoint" />
            <Array as="points">
              <mxPoint x="1070" y="1070" />
            </Array>
            <mxPoint x="1200" y="1070" as="sourcePoint" />
          </mxGeometry>
        </mxCell>
        <mxCell id="-OGlP8KNZQWg6UsRNXII-73" value="loop" style="shape=umlFrame;whiteSpace=wrap;html=1;pointerEvents=0;labelBackgroundColor=none;fillColor=#FAE5C7;strokeColor=#0F8B8D;fontColor=#143642;" vertex="1" parent="1">
          <mxGeometry x="940" y="960" width="280" height="120" as="geometry" />
        </mxCell>
        <mxCell id="-OGlP8KNZQWg6UsRNXII-74" value="[pour ball dans boules (for each)]" style="text;html=1;align=center;verticalAlign=middle;whiteSpace=wrap;rounded=0;labelBackgroundColor=none;fontColor=#143642;" vertex="1" parent="1">
          <mxGeometry x="960" y="990" width="180" height="30" as="geometry" />
        </mxCell>
      </root>
    </mxGraphModel>
  </diagram>
</mxfile>
